# xmcd
#
# Track frame offsets: 
#        150
#        14961
#        29525
#        43582
#        56520
#        71869
#        85059
#        98163
#        111329
#        123253
#        137253
#        150436
#        163998
#        178323
#        193480
#        209078
#        221748
#        235946
#        248648
#
# Disc length: 3494 seconds
#
# Revision: 1
# Processed by: cddbd v1.5.2PL0 Copyright (c) Steve Scherf et al.
# Submitted via: ExactAudioCopy v0.95b4
#
DISCID=210da413
DTITLE=Various Artist - Old-Time Mountain Blues: Rural Classics 1927-1939
DYEAR=2003
DGENRE=Country Blues
TTITLE0=Sam McGee - Railroad Blues [1934]
TTITLE1=Dick Justice - Brown Skin Blues [1929]
TTITLE2=Dock Boggs - Down South Blues [1927]
TTITLE3=Fiddling Doc Roberts Trio - Cumberland Blues [1933]
TTITLE4=Frank Hutchinson - Cannonball Blues [1929]
TTITLE5=Lowe Stokes and His North Georgians - Left All Alone Again Blues
TTITLE5=[1929]
TTITLE6=Narmour and Smith - New Carroll County Blues No. 1 [1934]
TTITLE7=Larry Hensley - Match Box Blues [1934]
TTITLE8=Cliff Carlisle - Troubled Minded Blues [1937]
TTITLE9=Leake County Revelers - Leake County Blues [1929]
TTITLE10=Lester McFarland - K.C. Whistle Blues [1927]
TTITLE11=Gwen Foster - Side Line Blues [1939]
TTITLE12=Byrd Moore and Jess Johnson - My Trouble Blues [1930]
TTITLE13=Sam McGee - Easy Rider [1928]
TTITLE14=Jimmie Tarlton - Careless Love [1930]
TTITLE15=David Miller - Cannon Ball Rag [1931]
TTITLE16=Burnett and Rutherford - Curly Headed Woman [1927]
TTITLE17=South Georgia Highballers - Bibb County Grind [1927]
TTITLE18=Clarence Green - Johnson City Blues [1928]
EXTD=CD: County Records CO-CD-3528 (2003-07-22), UPC 009001352828.
EXTT0=
EXTT1=
EXTT2=
EXTT3=
EXTT4=
EXTT5=
EXTT6=
EXTT7=
EXTT8=
EXTT9=
EXTT10=
EXTT11=
EXTT12=
EXTT13=
EXTT14=
EXTT15=
EXTT16=
EXTT17=
EXTT18=
PLAYORDER=
